<?xml version="1.0" encoding="UTF-8"?>
<svg viewBox="0 0 100 100" xmlns="http://www.w3.org/2000/svg">
<path d="M13.956 89.91L6 .646h87.516L85.56 89.91 49.66 100" fill="#e34f26"/>
<path d="M49.855 92.238l28.914-7.956 6.79-76.456H49.854" fill="#ef652a"/>
<path d="M49.855 41.01H35.3l-.97-11.256h15.525V18.887H22.3l.194 2.91L25.21 52.07h24.645zm0 28.524h-.194l-12.223-3.3-.776-8.73H25.794l1.358 17.27 22.51 6.21h.196z" fill="#ebebeb"/>
<path d="M49.66 41.01v11.06h13.585l-1.36 14.165-12.224 3.3v11.448l22.51-6.21.196-1.94L74.89 43.92l.387-2.91H72.17zm0-22.123v10.866h26.586l.194-2.33.582-5.626.194-2.91z" fill="#fff"/>
</svg>
